<svg width="25" height="20" viewBox="0 0 25 20" fill="none" xmlns="http://www.w3.org/2000/svg">
<path d="M22.8027 0H2.19727C0.988184 0 0 1.11939 0 2.5V17.5C0 18.8811 0.988818 20 2.19727 20H22.8027C24.0118 20 25 18.8806 25 17.5V2.5C25 1.11906 24.0113 0 22.8027 0ZM22.4653 1.66667C21.7549 2.47761 13.4104 12.0028 13.0676 12.3941C12.7812 12.7209 12.2189 12.7211 11.9324 12.3941L2.53467 1.66667H22.4653ZM1.46484 17.1936V2.80639L7.76685 10L1.46484 17.1936ZM2.53467 18.3333L8.80098 11.1804L10.895 13.5707C11.7531 14.5502 13.2473 14.5498 14.1051 13.5707L16.1991 11.1805L22.4653 18.3333H2.53467ZM23.5352 17.1936L17.2332 10L23.5352 2.80639V17.1936Z" fill="white"/>
</svg>
