<svg width="26" height="25" viewBox="0 0 26 25" fill="none" xmlns="http://www.w3.org/2000/svg">
<path fill-rule="evenodd" clip-rule="evenodd" d="M22.2118 3.63312C19.7677 1.2915 16.5172 0.00137329 13.0544 0C5.91879 0 0.111459 5.5571 0.108588 12.3872C0.107632 14.5706 0.703672 16.702 1.8366 18.5806L0 25L6.86276 23.2773C8.75373 24.2644 10.8826 24.7845 13.0491 24.7852H13.0545C20.1893 24.7852 25.9973 19.2276 26 12.3972C26.0014 9.08691 24.6561 5.97458 22.2118 3.63312ZM13.0544 22.693H13.0499C11.1192 22.6923 9.22571 22.1957 7.57345 21.2578L7.18071 21.0345L3.10824 22.0569L4.19525 18.2573L3.93932 17.8677C2.86221 16.2283 2.29343 14.3335 2.29439 12.388C2.29662 6.71097 7.12363 2.09229 13.0587 2.09229C15.9327 2.0932 18.6343 3.16559 20.6658 5.11185C22.6972 7.05811 23.8153 9.64508 23.8144 12.3964C23.8118 18.0739 18.9851 22.693 13.0544 22.693ZM18.9564 14.9814C18.633 14.8264 17.0426 14.0778 16.7461 13.9743C16.4498 13.871 16.2339 13.8196 16.0185 14.1293C15.8027 14.4391 15.1829 15.1364 14.9941 15.3429C14.8053 15.5495 14.6169 15.5754 14.2933 15.4204C13.9698 15.2655 12.9276 14.9385 11.692 13.884C10.7305 13.0632 10.0813 12.0496 9.89255 11.7398C9.70408 11.4297 9.89096 11.2784 10.0345 11.1081C10.3846 10.692 10.7353 10.2557 10.8431 10.0493C10.951 9.84268 10.897 9.66187 10.816 9.50699C10.7353 9.35211 10.0884 7.82852 9.81888 7.20856C9.5561 6.60522 9.28965 6.68671 9.09097 6.67725C8.9025 6.66824 8.68676 6.66641 8.47102 6.66641C8.25543 6.66641 7.90495 6.74377 7.60837 7.05383C7.31194 7.36374 6.4764 8.11249 6.4764 9.63608C6.4764 11.1597 7.63547 12.6315 7.79716 12.8381C7.95885 13.0447 10.0782 16.1713 13.3229 17.5119C14.0947 17.8311 14.6971 18.0214 15.167 18.1641C15.9419 18.3997 16.6469 18.3664 17.2043 18.2867C17.8259 18.1978 19.1179 17.5378 19.3877 16.8149C19.6572 16.0918 19.6572 15.4721 19.5762 15.3429C19.4955 15.2138 19.2798 15.1364 18.9564 14.9814Z" fill="white"/>
</svg>
