<svg width="390" height="390" viewBox="0 0 390 390" fill="none" xmlns="http://www.w3.org/2000/svg">
<path d="M-77 -11H-75.5286C-75.5286 -10.1888 -76.1879 -9.53018 -77 -9.53018V-11ZM-77 14.2639V17.2035C-76.1879 17.2035 -75.5286 16.5449 -75.5286 15.7337C-75.5286 14.9225 -76.1879 14.2639 -77 14.2639ZM-77 40.9976V43.9372C-76.1879 43.9372 -75.5286 43.2786 -75.5286 42.4674C-75.5286 41.6562 -76.1879 40.9976 -77 40.9976ZM-77 67.7313V70.6709C-76.1879 70.6709 -75.5286 70.0124 -75.5286 69.2011C-75.5286 68.3899 -76.1879 67.7313 -77 67.7313ZM-50.2378 -9.53018C-49.4257 -9.53018 -48.7664 -10.1888 -48.7664 -11H-51.7092C-51.7092 -10.1888 -51.0499 -9.53018 -50.2378 -9.53018ZM-23.4757 -9.53018C-22.6636 -9.53018 -22.0043 -10.1888 -22.0043 -11H-24.947C-24.947 -10.1888 -24.2877 -9.53018 -23.4757 -9.53018ZM1.81514 -11C1.81514 -10.1888 2.47443 -9.53018 3.28651 -9.53018C4.09861 -9.53018 4.7579 -10.1888 4.7579 -11H1.81514ZM-50.2378 14.2639C-51.0499 14.2639 -51.7092 14.9225 -51.7092 15.7337C-51.7092 16.5449 -51.0499 17.2035 -50.2378 17.2035C-49.4257 17.2035 -48.7664 16.5449 -48.7664 15.7337C-48.7664 14.9225 -49.4257 14.2639 -50.2378 14.2639ZM-23.4757 14.2639C-24.2877 14.2639 -24.947 14.9225 -24.947 15.7337C-24.947 16.5449 -24.2877 17.2035 -23.4757 17.2035C-22.6636 17.2035 -22.0043 16.5449 -22.0043 15.7337C-22.0043 14.9225 -22.6636 14.2639 -23.4757 14.2639ZM-50.2378 40.9976C-51.0499 40.9976 -51.7092 41.6562 -51.7092 42.4674C-51.7092 43.2786 -51.0499 43.9372 -50.2378 43.9372C-49.4257 43.9372 -48.7664 43.2786 -48.7664 42.4674C-48.7664 41.6562 -49.4257 40.9976 -50.2378 40.9976ZM-23.4757 40.9976C-24.2877 40.9976 -24.947 41.6562 -24.947 42.4674C-24.947 43.2786 -24.2877 43.9372 -23.4757 43.9372C-22.6636 43.9372 -22.0043 43.2786 -22.0043 42.4674C-22.0043 41.6562 -22.6636 40.9976 -23.4757 40.9976ZM-50.2378 67.7313C-51.0499 67.7313 -51.7092 68.3899 -51.7092 69.2011C-51.7092 70.0124 -51.0499 70.6709 -50.2378 70.6709C-49.4257 70.6709 -48.7664 70.0124 -48.7664 69.2011C-48.7664 68.3899 -49.4257 67.7313 -50.2378 67.7313ZM-23.4757 67.7313C-24.2877 67.7313 -24.947 68.3899 -24.947 69.2011C-24.947 70.0124 -24.2877 70.6709 -23.4757 70.6709C-22.6636 70.6709 -22.0043 70.0124 -22.0043 69.2011C-22.0043 68.3899 -22.6636 67.7313 -23.4757 67.7313ZM3.28651 14.2639C2.47443 14.2639 1.81514 14.9225 1.81514 15.7337C1.81514 16.5449 2.47443 17.2035 3.28651 17.2035C4.09861 17.2035 4.7579 16.5449 4.7579 15.7337C4.7579 14.9225 4.09861 14.2639 3.28651 14.2639ZM3.28651 40.9976C2.47443 40.9976 1.81514 41.6562 1.81514 42.4674C1.81514 43.2786 2.47443 43.9372 3.28651 43.9372C4.09861 43.9372 4.7579 43.2786 4.7579 42.4674C4.7579 41.6562 4.09861 40.9976 3.28651 40.9976ZM3.28651 67.7313C2.47443 67.7313 1.81514 68.3899 1.81514 69.2011C1.81514 70.0124 2.47443 70.6709 3.28651 70.6709C4.09861 70.6709 4.7579 70.0124 4.7579 69.2011C4.7579 68.3899 4.09861 67.7313 3.28651 67.7313ZM30.0487 -9.53018C30.8608 -9.53018 31.5201 -10.1888 31.5201 -11H28.5773C28.5773 -10.1888 29.2366 -9.53018 30.0487 -9.53018ZM56.8109 -9.53018C57.623 -9.53018 58.2823 -10.1888 58.2823 -11H55.3395C55.3395 -10.1888 55.9988 -9.53018 56.8109 -9.53018ZM82.0988 -11C82.0988 -10.1888 82.7581 -9.53018 83.5702 -9.53018C84.3823 -9.53018 85.0416 -10.1888 85.0416 -11H82.0988ZM30.0487 17.2035C30.8608 17.2035 31.5201 16.5449 31.5201 15.7337C31.5201 14.9225 30.8608 14.2639 30.0487 14.2639C29.2366 14.2639 28.5773 14.9225 28.5773 15.7337C28.5773 16.5449 29.2366 17.2035 30.0487 17.2035ZM56.8109 14.2639C55.9988 14.2639 55.3395 14.9225 55.3395 15.7337C55.3395 16.5449 55.9988 17.2035 56.8109 17.2035C57.623 17.2035 58.2823 16.5449 58.2823 15.7337C58.2823 14.9225 57.623 14.2639 56.8109 14.2639ZM30.0487 43.9372C30.8608 43.9372 31.5201 43.2786 31.5201 42.4674C31.5201 41.6562 30.8608 40.9976 30.0487 40.9976C29.2366 40.9976 28.5773 41.6562 28.5773 42.4674C28.5773 43.2786 29.2366 43.9372 30.0487 43.9372ZM56.8109 40.9976C55.9988 40.9976 55.3395 41.6562 55.3395 42.4674C55.3395 43.2786 55.9988 43.9372 56.8109 43.9372C57.623 43.9372 58.2823 43.2786 58.2823 42.4674C58.2823 41.6562 57.623 40.9976 56.8109 40.9976ZM30.0487 67.7313C29.2366 67.7313 28.5773 68.3899 28.5773 69.2011C28.5773 70.0124 29.2366 70.6709 30.0487 70.6709C30.8608 70.6709 31.5201 70.0124 31.5201 69.2011C31.5201 68.3899 30.8608 67.7313 30.0487 67.7313ZM56.8109 67.7313C55.9988 67.7313 55.3395 68.3899 55.3395 69.2011C55.3395 70.0124 55.9988 70.6709 56.8109 70.6709C57.623 70.6709 58.2823 70.0124 58.2823 69.2011C58.2823 68.3899 57.623 67.7313 56.8109 67.7313ZM83.5702 14.2639C82.7581 14.2639 82.0988 14.9225 82.0988 15.7337C82.0988 16.5449 82.7581 17.2035 83.5702 17.2035C84.3823 17.2035 85.0416 16.5449 85.0416 15.7337C85.0416 14.9225 84.3823 14.2639 83.5702 14.2639ZM83.5702 40.9976C82.7581 40.9976 82.0988 41.6562 82.0988 42.4674C82.0988 43.2786 82.7581 43.9372 83.5702 43.9372C84.3823 43.9372 85.0416 43.2786 85.0416 42.4674C85.0416 41.6562 84.3823 40.9976 83.5702 40.9976ZM83.5702 67.7313C82.7581 67.7313 82.0988 68.3899 82.0988 69.2011C82.0988 70.0124 82.7581 70.6709 83.5702 70.6709C84.3823 70.6709 85.0416 70.0124 85.0416 69.2011C85.0416 68.3899 84.3823 67.7313 83.5702 67.7313ZM110.332 -9.53018C111.144 -9.53018 111.804 -10.1888 111.804 -11H108.861C108.861 -10.1888 109.52 -9.53018 110.332 -9.53018ZM137.095 -9.53018C137.907 -9.53018 138.566 -10.1888 138.566 -11H135.623C135.623 -10.1888 136.282 -9.53018 137.095 -9.53018ZM163.857 -9.53018C164.669 -9.53018 165.328 -10.1888 165.328 -11H162.385C162.385 -10.1888 163.045 -9.53018 163.857 -9.53018ZM110.332 14.2639C109.52 14.2639 108.861 14.9225 108.861 15.7337C108.861 16.5449 109.52 17.2035 110.332 17.2035C111.144 17.2035 111.804 16.5449 111.804 15.7337C111.804 14.9225 111.144 14.2639 110.332 14.2639ZM136.863 14.2922C136.062 14.425 135.518 15.1797 135.649 15.9824C135.779 16.7852 136.537 17.3251 137.341 17.195C138.141 17.0622 138.685 16.3075 138.555 15.5048C138.422 14.7048 137.666 14.1621 136.863 14.2922ZM163.857 17.2035V14.2639C163.045 14.2639 162.385 14.9225 162.385 15.7337C162.385 16.5449 163.045 17.2035 163.857 17.2035ZM110.332 40.9976C109.52 40.9976 108.861 41.6562 108.861 42.4674C108.861 43.2786 109.52 43.9372 110.332 43.9372C111.144 43.9372 111.804 43.2786 111.804 42.4674C111.804 41.6562 111.144 40.9976 110.332 40.9976ZM137.095 40.9976C136.282 40.9976 135.623 41.6562 135.623 42.4674C135.623 43.2786 136.282 43.9372 137.095 43.9372C137.907 43.9372 138.566 43.2786 138.566 42.4674C138.566 41.6562 137.907 40.9976 137.095 40.9976ZM163.857 43.9372V40.9976C163.045 40.9976 162.385 41.6562 162.385 42.4674C162.385 43.2786 163.045 43.9372 163.857 43.9372ZM110.332 67.7313C109.52 67.7313 108.861 68.3899 108.861 69.2011C108.861 70.0124 109.52 70.6709 110.332 70.6709C111.144 70.6709 111.804 70.0124 111.804 69.2011C111.804 68.3899 111.144 67.7313 110.332 67.7313ZM137.095 67.7313C136.282 67.7313 135.623 68.3899 135.623 69.2011C135.623 70.0124 136.282 70.6709 137.095 70.6709C137.907 70.6709 138.566 70.0124 138.566 69.2011C138.566 68.3899 137.907 67.7313 137.095 67.7313ZM163.857 14.2639V17.2035C164.669 17.2035 165.328 16.5449 165.328 15.7337C165.328 14.9225 164.669 14.2639 163.857 14.2639ZM163.857 40.9976V43.9372C164.669 43.9372 165.328 43.2786 165.328 42.4674C165.328 41.6562 164.669 40.9976 163.857 40.9976ZM163.857 67.7313C163.045 67.7313 162.385 68.3899 162.385 69.2011C162.385 70.0124 163.045 70.6709 163.857 70.6709C164.669 70.6709 165.328 70.0124 165.328 69.2011C165.328 68.3899 164.669 67.7313 163.857 67.7313ZM190.619 -9.53018C191.431 -9.53018 192.09 -10.1888 192.09 -11H189.148C189.148 -10.1888 189.807 -9.53018 190.619 -9.53018ZM217.381 -9.53018C218.193 -9.53018 218.852 -10.1888 218.852 -11H215.91C215.91 -10.1888 216.569 -9.53018 217.381 -9.53018ZM244.143 -9.53018C244.955 -9.53018 245.615 -10.1888 245.615 -11H242.672C242.672 -10.1888 243.331 -9.53018 244.143 -9.53018ZM190.619 14.2639C189.807 14.2639 189.148 14.9225 189.148 15.7337C189.148 16.5449 189.807 17.2035 190.619 17.2035C191.431 17.2035 192.09 16.5449 192.09 15.7337C192.09 14.9225 191.431 14.2639 190.619 14.2639ZM217.381 14.2639C216.569 14.2639 215.91 14.9225 215.91 15.7337C215.91 16.5449 216.569 17.2035 217.381 17.2035C218.193 17.2035 218.852 16.5449 218.852 15.7337C218.852 14.9225 218.193 14.2639 217.381 14.2639ZM244.143 17.2035C244.955 17.2035 245.615 16.5449 245.615 15.7337C245.615 14.9225 244.955 14.2639 244.143 14.2639C243.331 14.2639 242.672 14.9225 242.672 15.7337C242.672 16.5449 243.331 17.2035 244.143 17.2035ZM190.619 40.9976C189.807 40.9976 189.148 41.6562 189.148 42.4674C189.148 43.2786 189.807 43.9372 190.619 43.9372C191.431 43.9372 192.09 43.2786 192.09 42.4674C192.09 41.6562 191.431 40.9976 190.619 40.9976ZM217.381 40.9976C216.569 40.9976 215.91 41.6562 215.91 42.4674C215.91 43.2786 216.569 43.9372 217.381 43.9372C218.193 43.9372 218.852 43.2786 218.852 42.4674C218.852 41.6562 218.193 40.9976 217.381 40.9976ZM244.143 43.9372C244.955 43.9372 245.615 43.2786 245.615 42.4674C245.615 41.6562 244.955 40.9976 244.143 40.9976C243.331 40.9976 242.672 41.6562 242.672 42.4674C242.672 43.2786 243.331 43.9372 244.143 43.9372ZM190.619 67.7313C189.807 67.7313 189.148 68.3899 189.148 69.2011C189.148 70.0124 189.807 70.6709 190.619 70.6709C191.431 70.6709 192.09 70.0124 192.09 69.2011C192.09 68.3899 191.431 67.7313 190.619 67.7313ZM217.381 67.7313C216.569 67.7313 215.91 68.3899 215.91 69.2011C215.91 70.0124 216.569 70.6709 217.381 70.6709C218.193 70.6709 218.852 70.0124 218.852 69.2011C218.852 68.3899 218.193 67.7313 217.381 67.7313ZM244.143 67.7313C243.331 67.7313 242.672 68.3899 242.672 69.2011C242.672 70.0124 243.331 70.6709 244.143 70.6709C244.955 70.6709 245.615 70.0124 245.615 69.2011C245.615 68.3899 244.955 67.7313 244.143 67.7313ZM270.905 -9.53018C271.718 -9.53018 272.377 -10.1888 272.377 -11H269.434C269.434 -10.1888 270.093 -9.53018 270.905 -9.53018ZM297.665 -9.53018C298.477 -9.53018 299.136 -10.1888 299.136 -11H296.193C296.193 -10.1888 296.853 -9.53018 297.665 -9.53018ZM322.956 -11C322.956 -10.1888 323.615 -9.53018 324.427 -9.53018C325.239 -9.53018 325.898 -10.1888 325.898 -11H322.956ZM270.905 14.2639C270.093 14.2639 269.434 14.9225 269.434 15.7337C269.434 16.5449 270.093 17.2035 270.905 17.2035C271.718 17.2035 272.377 16.5449 272.377 15.7337C272.377 14.9225 271.718 14.2639 270.905 14.2639ZM297.665 14.2639C296.853 14.2639 296.193 14.9225 296.193 15.7337C296.193 16.5449 296.853 17.2035 297.665 17.2035C298.477 17.2035 299.136 16.5449 299.136 15.7337C299.136 14.9225 298.477 14.2639 297.665 14.2639ZM270.905 40.9976C270.093 40.9976 269.434 41.6562 269.434 42.4674C269.434 43.2786 270.093 43.9372 270.905 43.9372C271.718 43.9372 272.377 43.2786 272.377 42.4674C272.377 41.6562 271.718 40.9976 270.905 40.9976ZM297.665 40.9976C296.853 40.9976 296.193 41.6562 296.193 42.4674C296.193 43.2786 296.853 43.9372 297.665 43.9372C298.477 43.9372 299.136 43.2786 299.136 42.4674C299.136 41.6562 298.477 40.9976 297.665 40.9976ZM270.905 67.7313C270.093 67.7313 269.434 68.3899 269.434 69.2011C269.434 70.0124 270.093 70.6709 270.905 70.6709C271.718 70.6709 272.377 70.0124 272.377 69.2011C272.377 68.3899 271.718 67.7313 270.905 67.7313ZM297.665 67.7313C296.853 67.7313 296.193 68.3899 296.193 69.2011C296.193 70.0124 296.853 70.6709 297.665 70.6709C298.477 70.6709 299.136 70.0124 299.136 69.2011C299.136 68.3899 298.477 67.7313 297.665 67.7313ZM324.427 14.2639C323.615 14.2639 322.956 14.9225 322.956 15.7337C322.956 16.5449 323.615 17.2035 324.427 17.2035C325.239 17.2035 325.898 16.5449 325.898 15.7337C325.898 14.9225 325.239 14.2639 324.427 14.2639ZM324.427 40.9976C323.615 40.9976 322.956 41.6562 322.956 42.4674C322.956 43.2786 323.615 43.9372 324.427 43.9372C325.239 43.9372 325.898 43.2786 325.898 42.4674C325.898 41.6562 325.239 40.9976 324.427 40.9976ZM324.427 67.7313C323.615 67.7313 322.956 68.3899 322.956 69.2011C322.956 70.0124 323.615 70.6709 324.427 70.6709C325.239 70.6709 325.898 70.0124 325.898 69.2011C325.898 68.3899 325.239 67.7313 324.427 67.7313ZM351.189 -9.53018C352.001 -9.53018 352.66 -10.1888 352.66 -11H349.718C349.718 -10.1888 350.377 -9.53018 351.189 -9.53018ZM377.951 -9.53018C378.763 -9.53018 379.423 -10.1888 379.423 -11H376.48C376.48 -10.1888 377.139 -9.53018 377.951 -9.53018ZM404.713 -9.53018C405.526 -9.53018 406.185 -10.1888 406.185 -11H403.242C403.242 -10.1888 403.901 -9.53018 404.713 -9.53018ZM351.189 14.2639C350.377 14.2639 349.718 14.9225 349.718 15.7337C349.718 16.5449 350.377 17.2035 351.189 17.2035C352.001 17.2035 352.66 16.5449 352.66 15.7337C352.66 14.9225 352.001 14.2639 351.189 14.2639ZM377.951 14.2639C377.139 14.2639 376.48 14.9225 376.48 15.7337C376.48 16.5449 377.139 17.2035 377.951 17.2035C378.763 17.2035 379.423 16.5449 379.423 15.7337C379.423 14.9225 378.763 14.2639 377.951 14.2639ZM404.713 17.2035C405.526 17.2035 406.185 16.5449 406.185 15.7337C406.185 14.9225 405.526 14.2639 404.713 14.2639C403.901 14.2639 403.242 14.9225 403.242 15.7337C403.242 16.5449 403.901 17.2035 404.713 17.2035ZM351.189 40.9976C350.377 40.9976 349.718 41.6562 349.718 42.4674C349.718 43.2786 350.377 43.9372 351.189 43.9372C352.001 43.9372 352.66 43.2786 352.66 42.4674C352.66 41.6562 352.001 40.9976 351.189 40.9976ZM377.951 40.9976C377.139 40.9976 376.48 41.6562 376.48 42.4674C376.48 43.2786 377.139 43.9372 377.951 43.9372C378.763 43.9372 379.423 43.2786 379.423 42.4674C379.423 41.6562 378.763 40.9976 377.951 40.9976ZM404.713 43.9372C405.526 43.9372 406.185 43.2786 406.185 42.4674C406.185 41.6562 405.526 40.9976 404.713 40.9976C403.901 40.9976 403.242 41.6562 403.242 42.4674C403.242 43.2786 403.901 43.9372 404.713 43.9372ZM351.189 67.7313C350.377 67.7313 349.718 68.3899 349.718 69.2011C349.718 70.0124 350.377 70.6709 351.189 70.6709C352.001 70.6709 352.66 70.0124 352.66 69.2011C352.66 68.3899 352.001 67.7313 351.189 67.7313ZM377.951 67.7313C377.139 67.7313 376.48 68.3899 376.48 69.2011C376.48 70.0124 377.139 70.6709 377.951 70.6709C378.763 70.6709 379.423 70.0124 379.423 69.2011C379.423 68.3899 378.763 67.7313 377.951 67.7313ZM404.713 67.7313C403.901 67.7313 403.242 68.3899 403.242 69.2011C403.242 70.0124 403.901 70.6709 404.713 70.6709C405.526 70.6709 406.185 70.0124 406.185 69.2011C406.185 68.3899 405.526 67.7313 404.713 67.7313ZM431.476 -9.53018C432.288 -9.53018 432.947 -10.1888 432.947 -11H430.004C430.004 -10.1888 430.664 -9.53018 431.476 -9.53018ZM458.238 -9.53018C459.05 -9.53018 459.709 -10.1888 459.709 -11H456.766C456.766 -10.1888 457.426 -9.53018 458.238 -9.53018ZM485 -9.53018V-11H483.529C483.529 -10.1888 484.188 -9.53018 485 -9.53018ZM431.476 14.2639C430.664 14.2639 430.004 14.9225 430.004 15.7337C430.004 16.5449 430.664 17.2035 431.476 17.2035C432.288 17.2035 432.947 16.5449 432.947 15.7337C432.947 14.9225 432.288 14.2639 431.476 14.2639ZM458.238 14.2639C457.426 14.2639 456.766 14.9225 456.766 15.7337C456.766 16.5449 457.426 17.2035 458.238 17.2035C459.05 17.2035 459.709 16.5449 459.709 15.7337C459.709 14.9225 459.05 14.2639 458.238 14.2639ZM483.529 15.7337C483.529 16.5449 484.188 17.2035 485 17.2035V14.2639C484.188 14.2639 483.529 14.9225 483.529 15.7337ZM431.476 40.9976C430.664 40.9976 430.004 41.6562 430.004 42.4674C430.004 43.2786 430.664 43.9372 431.476 43.9372C432.288 43.9372 432.947 43.2786 432.947 42.4674C432.947 41.6562 432.288 40.9976 431.476 40.9976ZM458.238 40.9976C457.426 40.9976 456.766 41.6562 456.766 42.4674C456.766 43.2786 457.426 43.9372 458.238 43.9372C459.05 43.9372 459.709 43.2786 459.709 42.4674C459.709 41.6562 459.05 40.9976 458.238 40.9976ZM483.529 42.4674C483.529 43.2786 484.188 43.9372 485 43.9372V40.9976C484.188 40.9976 483.529 41.6562 483.529 42.4674ZM431.476 67.7313C430.664 67.7313 430.004 68.3899 430.004 69.2011C430.004 70.0124 430.664 70.6709 431.476 70.6709C432.288 70.6709 432.947 70.0124 432.947 69.2011C432.947 68.3899 432.288 67.7313 431.476 67.7313ZM458.238 67.7313C457.426 67.7313 456.766 68.3899 456.766 69.2011C456.766 70.0124 457.426 70.6709 458.238 70.6709C459.05 70.6709 459.709 70.0124 459.709 69.2011C459.709 68.3899 459.05 67.7313 458.238 67.7313ZM483.529 69.2011C483.529 70.0124 484.188 70.6709 485 70.6709V69.2011V67.7313C484.188 67.7313 483.529 68.3899 483.529 69.2011ZM-77 94.4622V97.4018C-76.1879 97.4018 -75.5286 96.7432 -75.5286 95.932C-75.5286 95.1208 -76.1879 94.4622 -77 94.4622ZM-77 121.196V124.136C-76.1879 124.136 -75.5286 123.477 -75.5286 122.666C-75.5286 121.855 -76.1879 121.196 -77 121.196ZM-77 147.93V149.399H-75.5286C-75.5286 148.588 -76.1879 147.93 -77 147.93ZM-50.2378 94.4622C-51.0499 94.4622 -51.7092 95.1208 -51.7092 95.932C-51.7092 96.7432 -51.0499 97.4018 -50.2378 97.4018C-49.4257 97.4018 -48.7664 96.7432 -48.7664 95.932C-48.7664 95.1208 -49.4257 94.4622 -50.2378 94.4622ZM-23.4757 94.4622C-24.2877 94.4622 -24.947 95.1208 -24.947 95.932C-24.947 96.7432 -24.2877 97.4018 -23.4757 97.4018C-22.6636 97.4018 -22.0043 96.7432 -22.0043 95.932C-22.0043 95.1208 -22.6636 94.4622 -23.4757 94.4622ZM-50.2378 121.196C-51.0499 121.196 -51.7092 121.855 -51.7092 122.666C-51.7092 123.477 -51.0499 124.136 -50.2378 124.136C-49.4257 124.136 -48.7664 123.477 -48.7664 122.666C-48.7664 121.855 -49.4257 121.196 -50.2378 121.196ZM-23.4757 121.196C-24.2877 121.196 -24.947 121.855 -24.947 122.666C-24.947 123.477 -24.2877 124.136 -23.4757 124.136C-22.6636 124.136 -22.0043 123.477 -22.0043 122.666C-22.0043 121.855 -22.6636 121.196 -23.4757 121.196ZM-50.2378 147.93C-51.0499 147.93 -51.7092 148.588 -51.7092 149.399H-48.7664C-48.7664 148.588 -49.4257 147.93 -50.2378 147.93ZM-23.4757 147.93C-24.2877 147.93 -24.947 148.588 -24.947 149.399H-22.0043C-22.0043 148.588 -22.6636 147.93 -23.4757 147.93ZM3.28651 94.4622C2.47443 94.4622 1.81514 95.1208 1.81514 95.932C1.81514 96.7432 2.47443 97.4018 3.28651 97.4018C4.09861 97.4018 4.7579 96.7432 4.7579 95.932C4.7579 95.1208 4.09861 94.4622 3.28651 94.4622ZM3.28651 121.196C2.47443 121.196 1.81514 121.855 1.81514 122.666C1.81514 123.477 2.47443 124.136 3.28651 124.136C4.09861 124.136 4.7579 123.477 4.7579 122.666C4.7579 121.855 4.09861 121.196 3.28651 121.196ZM4.7579 149.399C4.7579 148.588 4.09861 147.93 3.28651 147.93C2.47443 147.93 1.81514 148.588 1.81514 149.399C1.81514 150.211 2.47443 150.869 3.28651 150.869C4.09861 150.869 4.7579 150.211 4.7579 149.399ZM30.0487 97.4047C30.8608 97.4047 31.5201 96.7461 31.5201 95.9348C31.5201 95.1236 30.8608 94.465 30.0487 94.465C29.2366 94.465 28.5773 95.1236 28.5773 95.9348C28.5773 96.7461 29.2366 97.4047 30.0487 97.4047ZM56.8109 94.4622C55.9988 94.4622 55.3395 95.1208 55.3395 95.932C55.3395 96.7432 55.9988 97.4018 56.8109 97.4018C57.623 97.4018 58.2823 96.7432 58.2823 95.932C58.2823 95.1208 57.623 94.4622 56.8109 94.4622ZM30.0487 124.138C30.8608 124.138 31.5201 123.48 31.5201 122.669C31.5201 121.857 30.8608 121.199 30.0487 121.199C29.2366 121.199 28.5773 121.857 28.5773 122.669C28.5773 123.48 29.2366 124.138 30.0487 124.138ZM56.8109 121.196C55.9988 121.196 55.3395 121.855 55.3395 122.666C55.3395 123.477 55.9988 124.136 56.8109 124.136C57.623 124.136 58.2823 123.477 58.2823 122.666C58.2823 121.855 57.623 121.196 56.8109 121.196ZM30.0487 147.93C29.2366 147.93 28.5773 148.588 28.5773 149.399H31.5201C31.5201 148.588 30.8608 147.93 30.0487 147.93ZM56.8109 147.93C55.9988 147.93 55.3395 148.588 55.3395 149.399H58.2823C58.2823 148.588 57.623 147.93 56.8109 147.93ZM83.5702 94.4622C82.7581 94.4622 82.0988 95.1208 82.0988 95.932C82.0988 96.7432 82.7581 97.4018 83.5702 97.4018C84.3823 97.4018 85.0416 96.7432 85.0416 95.932C85.0416 95.1208 84.3823 94.4622 83.5702 94.4622ZM83.5702 121.196C82.7581 121.196 82.0988 121.855 82.0988 122.666C82.0988 123.477 82.7581 124.136 83.5702 124.136C84.3823 124.136 85.0416 123.477 85.0416 122.666C85.0416 121.855 84.3823 121.196 83.5702 121.196ZM85.0416 149.399C85.0416 148.588 84.3823 147.93 83.5702 147.93C82.7581 147.93 82.0988 148.588 82.0988 149.399C82.0988 150.211 82.7581 150.869 83.5702 150.869C84.3823 150.869 85.0416 150.211 85.0416 149.399ZM110.332 94.4622C109.52 94.4622 108.861 95.1208 108.861 95.932C108.861 96.7432 109.52 97.4018 110.332 97.4018C111.144 97.4018 111.804 96.7432 111.804 95.932C111.804 95.1208 111.144 94.4622 110.332 94.4622ZM137.095 94.4622C136.282 94.4622 135.623 95.1208 135.623 95.932C135.623 96.7432 136.282 97.4018 137.095 97.4018C137.907 97.4018 138.566 96.7432 138.566 95.932C138.566 95.1208 137.907 94.4622 137.095 94.4622ZM163.857 97.4047V94.465C163.045 94.465 162.385 95.1236 162.385 95.9348C162.385 96.7461 163.045 97.4047 163.857 97.4047ZM110.332 121.196C109.52 121.196 108.861 121.855 108.861 122.666C108.861 123.477 109.52 124.136 110.332 124.136C111.144 124.136 111.804 123.477 111.804 122.666C111.804 121.855 111.144 121.196 110.332 121.196ZM137.095 121.196C136.282 121.196 135.623 121.855 135.623 122.666C135.623 123.477 136.282 124.136 137.095 124.136C137.907 124.136 138.566 123.477 138.566 122.666C138.566 121.855 137.907 121.196 137.095 121.196ZM163.857 124.138V121.199C163.045 121.199 162.385 121.857 162.385 122.669C162.385 123.48 163.045 124.138 163.857 124.138ZM110.332 147.93C109.52 147.93 108.861 148.588 108.861 149.399H111.804C111.804 148.588 111.144 147.93 110.332 147.93ZM137.095 147.93C136.282 147.93 135.623 148.588 135.623 149.399H138.566C138.566 148.588 137.907 147.93 137.095 147.93ZM165.328 95.9348C165.328 95.1236 164.669 94.465 163.857 94.465V97.4047C164.669 97.4047 165.328 96.7461 165.328 95.9348ZM163.857 124.138C164.669 124.138 165.328 123.48 165.328 122.669C165.328 121.857 164.669 121.199 163.857 121.199V124.138ZM163.857 147.93V149.399H165.328C165.328 148.588 164.669 147.93 163.857 147.93ZM190.619 94.4622C189.807 94.4622 189.148 95.1208 189.148 95.932C189.148 96.7432 189.807 97.4018 190.619 97.4018C191.431 97.4018 192.09 96.7432 192.09 95.932C192.09 95.1208 191.431 94.4622 190.619 94.4622ZM217.381 94.4622C216.569 94.4622 215.91 95.1208 215.91 95.932C215.91 96.7432 216.569 97.4018 217.381 97.4018C218.193 97.4018 218.852 96.7432 218.852 95.932C218.852 95.1208 218.193 94.4622 217.381 94.4622ZM242.672 95.9348C242.672 96.7461 243.331 97.4047 244.143 97.4047C244.955 97.4047 245.615 96.7461 245.615 95.9348C245.615 95.1236 244.955 94.465 244.143 94.465C243.331 94.465 242.672 95.1236 242.672 95.9348ZM190.619 121.196C189.807 121.196 189.148 121.855 189.148 122.666C189.148 123.477 189.807 124.136 190.619 124.136C191.431 124.136 192.09 123.477 192.09 122.666C192.09 121.855 191.431 121.196 190.619 121.196ZM217.381 121.196C216.569 121.196 215.91 121.855 215.91 122.666C215.91 123.477 216.569 124.136 217.381 124.136C218.193 124.136 218.852 123.477 218.852 122.666C218.852 121.855 218.193 121.196 217.381 121.196ZM244.143 124.138C244.955 124.138 245.615 123.48 245.615 122.669C245.615 121.857 244.955 121.199 244.143 121.199C243.331 121.199 242.672 121.857 242.672 122.669C242.672 123.48 243.331 124.138 244.143 124.138ZM190.619 147.93C189.807 147.93 189.148 148.588 189.148 149.399H192.09C192.09 148.588 191.431 147.93 190.619 147.93ZM217.381 147.93C216.569 147.93 215.91 148.588 215.91 149.399H218.852C218.852 148.588 218.193 147.93 217.381 147.93ZM244.143 147.93C243.331 147.93 242.672 148.588 242.672 149.399C242.672 150.211 243.331 150.869 244.143 150.869C244.955 150.869 245.615 150.211 245.615 149.399C245.615 148.588 244.955 147.93 244.143 147.93ZM270.905 94.4622C270.093 94.4622 269.434 95.1208 269.434 95.932C269.434 96.7432 270.093 97.4018 270.905 97.4018C271.718 97.4018 272.377 96.7432 272.377 95.932C272.377 95.1208 271.718 94.4622 270.905 94.4622ZM297.665 94.4622C296.853 94.4622 296.193 95.1208 296.193 95.932C296.193 96.7432 296.853 97.4018 297.665 97.4018C298.477 97.4018 299.136 96.7432 299.136 95.932C299.136 95.1208 298.477 94.4622 297.665 94.4622ZM270.905 121.196C270.093 121.196 269.434 121.855 269.434 122.666C269.434 123.477 270.093 124.136 270.905 124.136C271.718 124.136 272.377 123.477 272.377 122.666C272.377 121.855 271.718 121.196 270.905 121.196ZM297.665 121.196C296.853 121.196 296.193 121.855 296.193 122.666C296.193 123.477 296.853 124.136 297.665 124.136C298.477 124.136 299.136 123.477 299.136 122.666C299.136 121.855 298.477 121.196 297.665 121.196ZM270.905 147.93C270.093 147.93 269.434 148.588 269.434 149.399H272.377C272.377 148.588 271.718 147.93 270.905 147.93ZM297.665 147.93C296.853 147.93 296.193 148.588 296.193 149.399H299.136C299.136 148.588 298.477 147.93 297.665 147.93ZM324.427 94.4622C323.615 94.4622 322.956 95.1208 322.956 95.932C322.956 96.7432 323.615 97.4018 324.427 97.4018C325.239 97.4018 325.898 96.7432 325.898 95.932C325.898 95.1208 325.239 94.4622 324.427 94.4622ZM324.427 121.196C323.615 121.196 322.956 121.855 322.956 122.666C322.956 123.477 323.615 124.136 324.427 124.136C325.239 124.136 325.898 123.477 325.898 122.666C325.898 121.855 325.239 121.196 324.427 121.196ZM325.898 149.399C325.898 148.588 325.239 147.93 324.427 147.93C323.615 147.93 322.956 148.588 322.956 149.399C322.956 150.211 323.615 150.869 324.427 150.869C325.239 150.869 325.898 150.211 325.898 149.399ZM351.189 94.4622C350.377 94.4622 349.718 95.1208 349.718 95.932C349.718 96.7432 350.377 97.4018 351.189 97.4018C352.001 97.4018 352.66 96.7432 352.66 95.932C352.66 95.1208 352.001 94.4622 351.189 94.4622ZM377.951 94.4622C377.139 94.4622 376.48 95.1208 376.48 95.932C376.48 96.7432 377.139 97.4018 377.951 97.4018C378.763 97.4018 379.423 96.7432 379.423 95.932C379.423 95.1208 378.763 94.4622 377.951 94.4622ZM403.242 95.9348C403.242 96.7461 403.901 97.4047 404.713 97.4047C405.526 97.4047 406.185 96.7461 406.185 95.9348C406.185 95.1236 405.526 94.465 404.713 94.465C403.901 94.465 403.242 95.1236 403.242 95.9348ZM351.189 121.196C350.377 121.196 349.718 121.855 349.718 122.666C349.718 123.477 350.377 124.136 351.189 124.136C352.001 124.136 352.66 123.477 352.66 122.666C352.66 121.855 352.001 121.196 351.189 121.196ZM377.951 121.196C377.139 121.196 376.48 121.855 376.48 122.666C376.48 123.477 377.139 124.136 377.951 124.136C378.763 124.136 379.423 123.477 379.423 122.666C379.423 121.855 378.763 121.196 377.951 121.196ZM404.713 124.138C405.526 124.138 406.185 123.48 406.185 122.669C406.185 121.857 405.526 121.199 404.713 121.199C403.901 121.199 403.242 121.857 403.242 122.669C403.242 123.48 403.901 124.138 404.713 124.138ZM351.189 147.93C350.377 147.93 349.718 148.588 349.718 149.399H352.66C352.66 148.588 352.001 147.93 351.189 147.93ZM377.951 147.93C377.139 147.93 376.48 148.588 376.48 149.399H379.423C379.423 148.588 378.763 147.93 377.951 147.93ZM404.713 147.93C403.901 147.93 403.242 148.588 403.242 149.399C403.242 150.211 403.901 150.869 404.713 150.869C405.526 150.869 406.185 150.211 406.185 149.399C406.185 148.588 405.526 147.93 404.713 147.93ZM431.476 94.4622C430.664 94.4622 430.004 95.1208 430.004 95.932C430.004 96.7432 430.664 97.4018 431.476 97.4018C432.288 97.4018 432.947 96.7432 432.947 95.932C432.947 95.1208 432.288 94.4622 431.476 94.4622ZM458.238 94.4622C457.426 94.4622 456.766 95.1208 456.766 95.932C456.766 96.7432 457.426 97.4018 458.238 97.4018C459.05 97.4018 459.709 96.7432 459.709 95.932C459.709 95.1208 459.05 94.4622 458.238 94.4622ZM483.529 95.9348C483.529 96.7461 484.188 97.4047 485 97.4047V94.465C484.188 94.465 483.529 95.1236 483.529 95.9348ZM431.476 121.196C430.664 121.196 430.004 121.855 430.004 122.666C430.004 123.477 430.664 124.136 431.476 124.136C432.288 124.136 432.947 123.477 432.947 122.666C432.947 121.855 432.288 121.196 431.476 121.196ZM458.238 121.196C457.426 121.196 456.766 121.855 456.766 122.666C456.766 123.477 457.426 124.136 458.238 124.136C459.05 124.136 459.709 123.477 459.709 122.666C459.709 121.855 459.05 121.196 458.238 121.196ZM483.529 122.666C483.529 123.477 484.188 124.136 485 124.136V121.196C484.188 121.196 483.529 121.855 483.529 122.666ZM431.476 147.93C430.664 147.93 430.004 148.588 430.004 149.399H432.947C432.947 148.588 432.288 147.93 431.476 147.93ZM458.238 147.93C457.426 147.93 456.766 148.588 456.766 149.399H459.709C459.709 148.588 459.05 147.93 458.238 147.93ZM483.529 149.399C483.529 150.211 484.188 150.869 485 150.869V149.399V147.93C484.188 147.93 483.529 148.588 483.529 149.399ZM-77 150.872C-76.1879 150.872 -75.5286 150.213 -75.5286 149.402H-77V150.872ZM-77 174.663V177.603C-76.1879 177.603 -75.5286 176.944 -75.5286 176.133C-75.5286 175.322 -76.1879 174.663 -77 174.663ZM-77 201.397V204.337C-76.1879 204.337 -75.5286 203.678 -75.5286 202.867C-75.5286 202.056 -76.1879 201.397 -77 201.397ZM-77 228.131V229.601H-75.5286C-75.5286 228.789 -76.1879 228.131 -77 228.131ZM-50.2378 150.872C-49.4257 150.872 -48.7664 150.213 -48.7664 149.402H-51.7092C-51.7092 150.213 -51.0499 150.872 -50.2378 150.872ZM-23.4757 150.872C-22.6636 150.872 -22.0043 150.213 -22.0043 149.402H-24.947C-24.947 150.213 -24.2877 150.872 -23.4757 150.872ZM-50.2378 174.663C-51.0499 174.663 -51.7092 175.322 -51.7092 176.133C-51.7092 176.944 -51.0499 177.603 -50.2378 177.603C-49.4257 177.603 -48.7664 176.944 -48.7664 176.133C-48.7664 175.322 -49.4257 174.663 -50.2378 174.663ZM-23.4757 174.663C-24.2877 174.663 -24.947 175.322 -24.947 176.133C-24.947 176.944 -24.2877 177.603 -23.4757 177.603C-22.6636 177.603 -22.0043 176.944 -22.0043 176.133C-22.0043 175.322 -22.6636 174.663 -23.4757 174.663ZM-50.2378 201.397C-51.0499 201.397 -51.7092 202.056 -51.7092 202.867C-51.7092 203.678 -51.0499 204.337 -50.2378 204.337C-49.4257 204.337 -48.7664 203.678 -48.7664 202.867C-48.7664 202.056 -49.4257 201.397 -50.2378 201.397ZM-23.4757 201.397C-24.2877 201.397 -24.947 202.056 -24.947 202.867C-24.947 203.678 -24.2877 204.337 -23.4757 204.337C-22.6636 204.337 -22.0043 203.678 -22.0043 202.867C-22.0043 202.056 -22.6636 201.397 -23.4757 201.397ZM-50.2378 228.131C-51.0499 228.131 -51.7092 228.789 -51.7092 229.601C-51.7092 230.412 -51.0499 231.07 -50.2378 231.07C-49.4257 231.07 -48.7664 230.412 -48.7664 229.601C-48.7664 228.789 -49.4257 228.131 -50.2378 228.131ZM-23.4757 228.131C-24.2877 228.131 -24.947 228.789 -24.947 229.601C-24.947 230.412 -24.2877 231.07 -23.4757 231.07C-22.6636 231.07 -22.0043 230.412 -22.0043 229.601C-22.0043 228.789 -22.6636 228.131 -23.4757 228.131ZM3.28651 174.663C2.47443 174.663 1.81514 175.322 1.81514 176.133C1.81514 176.944 2.47443 177.603 3.28651 177.603C4.09861 177.603 4.7579 176.944 4.7579 176.133C4.7579 175.322 4.09861 174.663 3.28651 174.663ZM3.28651 201.397C2.47443 201.397 1.81514 202.056 1.81514 202.867C1.81514 203.678 2.47443 204.337 3.28651 204.337C4.09861 204.337 4.7579 203.678 4.7579 202.867C4.7579 202.056 4.09861 201.397 3.28651 201.397ZM4.7579 229.601C4.7579 228.789 4.09861 228.131 3.28651 228.131C2.47443 228.131 1.81514 228.789 1.81514 229.601C1.81514 230.412 2.47443 231.07 3.28651 231.07C4.09861 231.07 4.7579 230.412 4.7579 229.601ZM30.0487 150.872C30.8608 150.872 31.5201 150.213 31.5201 149.402H28.5773C28.5773 150.213 29.2366 150.872 30.0487 150.872ZM56.8109 150.872C57.623 150.872 58.2823 150.213 58.2823 149.402H55.3395C55.3395 150.213 55.9988 150.872 56.8109 150.872ZM30.0487 177.603C30.8608 177.603 31.5201 176.944 31.5201 176.133C31.5201 175.322 30.8608 174.663 30.0487 174.663C29.2366 174.663 28.5773 175.322 28.5773 176.133C28.5773 176.944 29.2366 177.603 30.0487 177.603ZM56.8109 174.663C55.9988 174.663 55.3395 175.322 55.3395 176.133C55.3395 176.944 55.9988 177.603 56.8109 177.603C57.623 177.603 58.2823 176.944 58.2823 176.133C58.2823 175.322 57.623 174.663 56.8109 174.663ZM30.0487 204.337C30.8608 204.337 31.5201 203.678 31.5201 202.867C31.5201 202.056 30.8608 201.397 30.0487 201.397C29.2366 201.397 28.5773 202.056 28.5773 202.867C28.5773 203.678 29.2366 204.337 30.0487 204.337ZM56.8109 201.397C55.9988 201.397 55.3395 202.056 55.3395 202.867C55.3395 203.678 55.9988 204.337 56.8109 204.337C57.623 204.337 58.2823 203.678 58.2823 202.867C58.2823 202.056 57.623 201.397 56.8109 201.397ZM30.0487 228.131C29.2366 228.131 28.5773 228.789 28.5773 229.601C28.5773 230.412 29.2366 231.07 30.0487 231.07C30.8608 231.07 31.5201 230.412 31.5201 229.601C31.5201 228.789 30.8608 228.131 30.0487 228.131ZM56.8109 228.131C55.9988 228.131 55.3395 228.789 55.3395 229.601C55.3395 230.412 55.9988 231.07 56.8109 231.07C57.623 231.07 58.2823 230.412 58.2823 229.601C58.2823 228.789 57.623 228.131 56.8109 228.131ZM83.5702 174.663C82.7581 174.663 82.0988 175.322 82.0988 176.133C82.0988 176.944 82.7581 177.603 83.5702 177.603C84.3823 177.603 85.0416 176.944 85.0416 176.133C85.0416 175.322 84.3823 174.663 83.5702 174.663ZM83.5702 201.397C82.7581 201.397 82.0988 202.056 82.0988 202.867C82.0988 203.678 82.7581 204.337 83.5702 204.337C84.3823 204.337 85.0416 203.678 85.0416 202.867C85.0416 202.056 84.3823 201.397 83.5702 201.397ZM85.0416 229.601C85.0416 228.789 84.3823 228.131 83.5702 228.131C82.7581 228.131 82.0988 228.789 82.0988 229.601C82.0988 230.412 82.7581 231.07 83.5702 231.07C84.3823 231.07 85.0416 230.412 85.0416 229.601ZM110.332 150.872C111.144 150.872 111.804 150.213 111.804 149.402H108.861C108.861 150.213 109.52 150.872 110.332 150.872ZM137.095 150.872C137.907 150.872 138.566 150.213 138.566 149.402H135.623C135.623 150.213 136.282 150.872 137.095 150.872ZM163.857 150.872C164.669 150.872 165.328 150.213 165.328 149.402H163.857V147.932C163.045 147.932 162.385 148.591 162.385 149.402C162.385 150.213 163.045 150.872 163.857 150.872ZM110.332 174.663C109.52 174.663 108.861 175.322 108.861 176.133C108.861 176.944 109.52 177.603 110.332 177.603C111.144 177.603 111.804 176.944 111.804 176.133C111.804 175.322 111.144 174.663 110.332 174.663ZM137.095 174.663C136.282 174.663 135.623 175.322 135.623 176.133C135.623 176.944 136.282 177.603 137.095 177.603C137.907 177.603 138.566 176.944 138.566 176.133C138.566 175.322 137.907 174.663 137.095 174.663ZM163.857 177.603V174.663C163.045 174.663 162.385 175.322 162.385 176.133C162.385 176.944 163.045 177.603 163.857 177.603ZM110.332 201.397C109.52 201.397 108.861 202.056 108.861 202.867C108.861 203.678 109.52 204.337 110.332 204.337C111.144 204.337 111.804 203.678 111.804 202.867C111.804 202.056 111.144 201.397 110.332 201.397ZM137.095 201.397C136.282 201.397 135.623 202.056 135.623 202.867C135.623 203.678 136.282 204.337 137.095 204.337C137.907 204.337 138.566 203.678 138.566 202.867C138.566 202.056 137.907 201.397 137.095 201.397ZM163.857 204.337V201.397C163.045 201.397 162.385 202.056 162.385 202.867C162.385 203.678 163.045 204.337 163.857 204.337ZM110.332 228.131C109.52 228.131 108.861 228.789 108.861 229.601C108.861 230.412 109.52 231.07 110.332 231.07C111.144 231.07 111.804 230.412 111.804 229.601C111.804 228.789 111.144 228.131 110.332 228.131ZM137.095 228.131C136.282 228.131 135.623 228.789 135.623 229.601C135.623 230.412 136.282 231.07 137.095 231.07C137.907 231.07 138.566 230.412 138.566 229.601C138.566 228.789 137.907 228.131 137.095 228.131ZM163.857 228.131C163.045 228.131 162.385 228.789 162.385 229.601C162.385 230.412 163.045 231.07 163.857 231.07C164.669 231.07 165.328 230.412 165.328 229.601H163.857V228.131ZM163.857 174.663V177.603C164.669 177.603 165.328 176.944 165.328 176.133C165.328 175.322 164.669 174.663 163.857 174.663ZM163.857 201.397V204.337C164.669 204.337 165.328 203.678 165.328 202.867C165.328 202.056 164.669 201.397 163.857 201.397ZM163.857 228.131V229.601H165.328C165.328 228.789 164.669 228.131 163.857 228.131ZM190.619 150.872C191.431 150.872 192.09 150.213 192.09 149.402H189.148C189.148 150.213 189.807 150.872 190.619 150.872ZM217.381 150.872C218.193 150.872 218.852 150.213 218.852 149.402H215.91C215.91 150.213 216.569 150.872 217.381 150.872ZM190.619 174.663C189.807 174.663 189.148 175.322 189.148 176.133C189.148 176.944 189.807 177.603 190.619 177.603C191.431 177.603 192.09 176.944 192.09 176.133C192.09 175.322 191.431 174.663 190.619 174.663ZM217.381 174.663C216.569 174.663 215.91 175.322 215.91 176.133C215.91 176.944 216.569 177.603 217.381 177.603C218.193 177.603 218.852 176.944 218.852 176.133C218.852 175.322 218.193 174.663 217.381 174.663ZM244.143 174.663C243.331 174.663 242.672 175.322 242.672 176.133C242.672 176.944 243.331 177.603 244.143 177.603C244.955 177.603 245.615 176.944 245.615 176.133C245.615 175.322 244.955 174.663 244.143 174.663ZM190.619 201.397C189.807 201.397 189.148 202.056 189.148 202.867C189.148 203.678 189.807 204.337 190.619 204.337C191.431 204.337 192.09 203.678 192.09 202.867C192.09 202.056 191.431 201.397 190.619 201.397ZM217.381 201.397C216.569 201.397 215.91 202.056 215.91 202.867C215.91 203.678 216.569 204.337 217.381 204.337C218.193 204.337 218.852 203.678 218.852 202.867C218.852 202.056 218.193 201.397 217.381 201.397ZM244.143 204.337C244.955 204.337 245.615 203.678 245.615 202.867C245.615 202.056 244.955 201.397 244.143 201.397C243.331 201.397 242.672 202.056 242.672 202.867C242.672 203.678 243.331 204.337 244.143 204.337ZM190.619 228.131C189.807 228.131 189.148 228.789 189.148 229.601C189.148 230.412 189.807 231.07 190.619 231.07C191.431 231.07 192.09 230.412 192.09 229.601C192.09 228.789 191.431 228.131 190.619 228.131ZM217.381 228.131C216.569 228.131 215.91 228.789 215.91 229.601C215.91 230.412 216.569 231.07 217.381 231.07C218.193 231.07 218.852 230.412 218.852 229.601C218.852 228.789 218.193 228.131 217.381 228.131ZM244.143 228.131C243.331 228.131 242.672 228.789 242.672 229.601C242.672 230.412 243.331 231.07 244.143 231.07C244.955 231.07 245.615 230.412 245.615 229.601C245.615 228.789 244.955 228.131 244.143 228.131ZM270.905 150.872C271.718 150.872 272.377 150.213 272.377 149.402H269.434C269.434 150.213 270.093 150.872 270.905 150.872ZM297.665 150.872C298.477 150.872 299.136 150.213 299.136 149.402H296.193C296.193 150.213 296.853 150.872 297.665 150.872ZM270.905 174.663C270.093 174.663 269.434 175.322 269.434 176.133C269.434 176.944 270.093 177.603 270.905 177.603C271.718 177.603 272.377 176.944 272.377 176.133C272.377 175.322 271.718 174.663 270.905 174.663ZM297.665 174.663C296.853 174.663 296.193 175.322 296.193 176.133C296.193 176.944 296.853 177.603 297.665 177.603C298.477 177.603 299.136 176.944 299.136 176.133C299.136 175.322 298.477 174.663 297.665 174.663ZM270.905 201.397C270.093 201.397 269.434 202.056 269.434 202.867C269.434 203.678 270.093 204.337 270.905 204.337C271.718 204.337 272.377 203.678 272.377 202.867C272.377 202.056 271.718 201.397 270.905 201.397ZM297.665 201.397C296.853 201.397 296.193 202.056 296.193 202.867C296.193 203.678 296.853 204.337 297.665 204.337C298.477 204.337 299.136 203.678 299.136 202.867C299.136 202.056 298.477 201.397 297.665 201.397ZM270.905 228.131C270.093 228.131 269.434 228.789 269.434 229.601C269.434 230.412 270.093 231.07 270.905 231.07C271.718 231.07 272.377 230.412 272.377 229.601C272.377 228.789 271.718 228.131 270.905 228.131ZM297.665 228.131C296.853 228.131 296.193 228.789 296.193 229.601C296.193 230.412 296.853 231.07 297.665 231.07C298.477 231.07 299.136 230.412 299.136 229.601C299.136 228.789 298.477 228.131 297.665 228.131ZM324.427 174.663C323.615 174.663 322.956 175.322 322.956 176.133C322.956 176.944 323.615 177.603 324.427 177.603C325.239 177.603 325.898 176.944 325.898 176.133C325.898 175.322 325.239 174.663 324.427 174.663ZM324.427 201.397C323.615 201.397 322.956 202.056 322.956 202.867C322.956 203.678 323.615 204.337 324.427 204.337C325.239 204.337 325.898 203.678 325.898 202.867C325.898 202.056 325.239 201.397 324.427 201.397ZM325.898 229.601C325.898 228.789 325.239 228.131 324.427 228.131C323.615 228.131 322.956 228.789 322.956 229.601C322.956 230.412 323.615 231.07 324.427 231.07C325.239 231.07 325.898 230.412 325.898 229.601ZM351.189 150.872C352.001 150.872 352.66 150.213 352.66 149.402H349.718C349.718 150.213 350.377 150.872 351.189 150.872ZM377.951 150.872C378.763 150.872 379.423 150.213 379.423 149.402H376.48C376.48 150.213 377.139 150.872 377.951 150.872ZM351.189 174.663C350.377 174.663 349.718 175.322 349.718 176.133C349.718 176.944 350.377 177.603 351.189 177.603C352.001 177.603 352.66 176.944 352.66 176.133C352.66 175.322 352.001 174.663 351.189 174.663ZM377.951 174.663C377.139 174.663 376.48 175.322 376.48 176.133C376.48 176.944 377.139 177.603 377.951 177.603C378.763 177.603 379.423 176.944 379.423 176.133C379.423 175.322 378.763 174.663 377.951 174.663ZM404.713 174.663C403.901 174.663 403.242 175.322 403.242 176.133C403.242 176.944 403.901 177.603 404.713 177.603C405.526 177.603 406.185 176.944 406.185 176.133C406.185 175.322 405.526 174.663 404.713 174.663ZM351.189 201.397C350.377 201.397 349.718 202.056 349.718 202.867C349.718 203.678 350.377 204.337 351.189 204.337C352.001 204.337 352.66 203.678 352.66 202.867C352.66 202.056 352.001 201.397 351.189 201.397ZM377.951 201.397C377.139 201.397 376.48 202.056 376.48 202.867C376.48 203.678 377.139 204.337 377.951 204.337C378.763 204.337 379.423 203.678 379.423 202.867C379.423 202.056 378.763 201.397 377.951 201.397ZM404.713 204.337C405.526 204.337 406.185 203.678 406.185 202.867C406.185 202.056 405.526 201.397 404.713 201.397C403.901 201.397 403.242 202.056 403.242 202.867C403.242 203.678 403.901 204.337 404.713 204.337ZM351.189 228.131C350.377 228.131 349.718 228.789 349.718 229.601C349.718 230.412 350.377 231.07 351.189 231.07C352.001 231.07 352.66 230.412 352.66 229.601C352.66 228.789 352.001 228.131 351.189 228.131ZM377.951 228.131C377.139 228.131 376.48 228.789 376.48 229.601C376.48 230.412 377.139 231.07 377.951 231.07C378.763 231.07 379.423 230.412 379.423 229.601C379.423 228.789 378.763 228.131 377.951 228.131ZM404.713 228.131C403.901 228.131 403.242 228.789 403.242 229.601C403.242 230.412 403.901 231.07 404.713 231.07C405.526 231.07 406.185 230.412 406.185 229.601C406.185 228.789 405.526 228.131 404.713 228.131ZM431.476 150.872C432.288 150.872 432.947 150.213 432.947 149.402H430.004C430.004 150.213 430.664 150.872 431.476 150.872ZM458.238 150.872C459.05 150.872 459.709 150.213 459.709 149.402H456.766C456.766 150.213 457.426 150.872 458.238 150.872ZM431.476 174.663C430.664 174.663 430.004 175.322 430.004 176.133C430.004 176.944 430.664 177.603 431.476 177.603C432.288 177.603 432.947 176.944 432.947 176.133C432.947 175.322 432.288 174.663 431.476 174.663ZM458.238 174.663C457.426 174.663 456.766 175.322 456.766 176.133C456.766 176.944 457.426 177.603 458.238 177.603C459.05 177.603 459.709 176.944 459.709 176.133C459.709 175.322 459.05 174.663 458.238 174.663ZM483.529 176.133C483.529 176.944 484.188 177.603 485 177.603V174.663C484.188 174.663 483.529 175.322 483.529 176.133ZM431.476 201.397C430.664 201.397 430.004 202.056 430.004 202.867C430.004 203.678 430.664 204.337 431.476 204.337C432.288 204.337 432.947 203.678 432.947 202.867C432.947 202.056 432.288 201.397 431.476 201.397ZM458.238 201.397C457.426 201.397 456.766 202.056 456.766 202.867C456.766 203.678 457.426 204.337 458.238 204.337C459.05 204.337 459.709 203.678 459.709 202.867C459.709 202.056 459.05 201.397 458.238 201.397ZM483.529 202.867C483.529 203.678 484.188 204.337 485 204.337V201.397C484.188 201.397 483.529 202.056 483.529 202.867ZM431.476 228.131C430.664 228.131 430.004 228.789 430.004 229.601C430.004 230.412 430.664 231.07 431.476 231.07C432.288 231.07 432.947 230.412 432.947 229.601C432.947 228.789 432.288 228.131 431.476 228.131ZM458.238 228.131C457.426 228.131 456.766 228.789 456.766 229.601C456.766 230.412 457.426 231.07 458.238 231.07C459.05 231.07 459.709 230.412 459.709 229.601C459.709 228.789 459.05 228.131 458.238 228.131ZM483.529 229.601C483.529 230.412 484.188 231.07 485 231.07V229.601V228.131C484.188 228.131 483.529 228.789 483.529 229.601ZM-77 231.07C-76.1879 231.07 -75.5286 230.412 -75.5286 229.601H-77V231.07ZM-77 254.864V257.804C-76.1879 257.804 -75.5286 257.146 -75.5286 256.334C-75.5286 255.523 -76.1879 254.864 -77 254.864ZM-77 281.598V284.538C-76.1879 284.538 -75.5286 283.879 -75.5286 283.068C-75.5286 282.257 -76.1879 281.598 -77 281.598ZM-77 308.332V311.272C-76.1879 311.272 -75.5286 310.613 -75.5286 309.802C-75.5286 308.99 -76.1879 308.332 -77 308.332ZM-50.2378 254.864C-51.0499 254.864 -51.7092 255.523 -51.7092 256.334C-51.7092 257.146 -51.0499 257.804 -50.2378 257.804C-49.4257 257.804 -48.7664 257.146 -48.7664 256.334C-48.7664 255.523 -49.4257 254.864 -50.2378 254.864ZM-23.4757 254.864C-24.2877 254.864 -24.947 255.523 -24.947 256.334C-24.947 257.146 -24.2877 257.804 -23.4757 257.804C-22.6636 257.804 -22.0043 257.146 -22.0043 256.334C-22.0043 255.523 -22.6636 254.864 -23.4757 254.864ZM-50.2378 281.598C-51.0499 281.598 -51.7092 282.257 -51.7092 283.068C-51.7092 283.879 -51.0499 284.538 -50.2378 284.538C-49.4257 284.538 -48.7664 283.879 -48.7664 283.068C-48.7664 282.257 -49.4257 281.598 -50.2378 281.598ZM-23.4757 281.598C-24.2877 281.598 -24.947 282.257 -24.947 283.068C-24.947 283.879 -24.2877 284.538 -23.4757 284.538C-22.6636 284.538 -22.0043 283.879 -22.0043 283.068C-22.0043 282.257 -22.6636 281.598 -23.4757 281.598ZM-50.2378 308.332C-51.0499 308.332 -51.7092 308.99 -51.7092 309.802C-51.7092 310.613 -51.0499 311.272 -50.2378 311.272C-49.4257 311.272 -48.7664 310.613 -48.7664 309.802C-48.7664 308.99 -49.4257 308.332 -50.2378 308.332ZM-23.4757 308.332C-24.2877 308.332 -24.947 308.99 -24.947 309.802C-24.947 310.613 -24.2877 311.272 -23.4757 311.272C-22.6636 311.272 -22.0043 310.613 -22.0043 309.802C-22.0043 308.99 -22.6636 308.332 -23.4757 308.332ZM3.28651 254.864C2.47443 254.864 1.81514 255.523 1.81514 256.334C1.81514 257.146 2.47443 257.804 3.28651 257.804C4.09861 257.804 4.7579 257.146 4.7579 256.334C4.7579 255.523 4.09861 254.864 3.28651 254.864ZM3.28651 281.598C2.47443 281.598 1.81514 282.257 1.81514 283.068C1.81514 283.879 2.47443 284.538 3.28651 284.538C4.09861 284.538 4.7579 283.879 4.7579 283.068C4.7579 282.257 4.09861 281.598 3.28651 281.598ZM3.28651 308.332C2.47443 308.332 1.81514 308.99 1.81514 309.802C1.81514 310.613 2.47443 311.272 3.28651 311.272C4.09861 311.272 4.7579 310.613 4.7579 309.802C4.7579 308.99 4.09861 308.332 3.28651 308.332ZM30.0487 257.804C30.8608 257.804 31.5201 257.146 31.5201 256.334C31.5201 255.523 30.8608 254.864 30.0487 254.864C29.2366 254.864 28.5773 255.523 28.5773 256.334C28.5773 257.146 29.2366 257.804 30.0487 257.804ZM56.8109 254.864C55.9988 254.864 55.3395 255.523 55.3395 256.334C55.3395 257.146 55.9988 257.804 56.8109 257.804C57.623 257.804 58.2823 257.146 58.2823 256.334C58.2823 255.523 57.623 254.864 56.8109 254.864ZM30.0487 284.538C30.8608 284.538 31.5201 283.879 31.5201 283.068C31.5201 282.257 30.8608 281.598 30.0487 281.598C29.2366 281.598 28.5773 282.257 28.5773 283.068C28.5773 283.879 29.2366 284.538 30.0487 284.538ZM56.8109 281.598C55.9988 281.598 55.3395 282.257 55.3395 283.068C55.3395 283.879 55.9988 284.538 56.8109 284.538C57.623 284.538 58.2823 283.879 58.2823 283.068C58.2823 282.257 57.623 281.598 56.8109 281.598ZM30.0487 308.332C29.2366 308.332 28.5773 308.99 28.5773 309.802C28.5773 310.613 29.2366 311.272 30.0487 311.272C30.8608 311.272 31.5201 310.613 31.5201 309.802C31.5201 308.99 30.8608 308.332 30.0487 308.332ZM56.8109 308.332C55.9988 308.332 55.3395 308.99 55.3395 309.802C55.3395 310.613 55.9988 311.272 56.8109 311.272C57.623 311.272 58.2823 310.613 58.2823 309.802C58.2823 308.99 57.623 308.332 56.8109 308.332ZM83.5702 254.864C82.7581 254.864 82.0988 255.523 82.0988 256.334C82.0988 257.146 82.7581 257.804 83.5702 257.804C84.3823 257.804 85.0416 257.146 85.0416 256.334C85.0416 255.523 84.3823 254.864 83.5702 254.864ZM83.5702 281.598C82.7581 281.598 82.0988 282.257 82.0988 283.068C82.0988 283.879 82.7581 284.538 83.5702 284.538C84.3823 284.538 85.0416 283.879 85.0416 283.068C85.0416 282.257 84.3823 281.598 83.5702 281.598ZM83.5702 308.332C82.7581 308.332 82.0988 308.99 82.0988 309.802C82.0988 310.613 82.7581 311.272 83.5702 311.272C84.3823 311.272 85.0416 310.613 85.0416 309.802C85.0416 308.99 84.3823 308.332 83.5702 308.332ZM110.332 254.864C109.52 254.864 108.861 255.523 108.861 256.334C108.861 257.146 109.52 257.804 110.332 257.804C111.144 257.804 111.804 257.146 111.804 256.334C111.804 255.523 111.144 254.864 110.332 254.864ZM137.095 254.864C136.282 254.864 135.623 255.523 135.623 256.334C135.623 257.146 136.282 257.804 137.095 257.804C137.907 257.804 138.566 257.146 138.566 256.334C138.566 255.523 137.907 254.864 137.095 254.864ZM163.857 257.804V254.864C163.045 254.864 162.385 255.523 162.385 256.334C162.385 257.146 163.045 257.804 163.857 257.804ZM110.332 281.598C109.52 281.598 108.861 282.257 108.861 283.068C108.861 283.879 109.52 284.538 110.332 284.538C111.144 284.538 111.804 283.879 111.804 283.068C111.804 282.257 111.144 281.598 110.332 281.598ZM137.095 281.598C136.282 281.598 135.623 282.257 135.623 283.068C135.623 283.879 136.282 284.538 137.095 284.538C137.907 284.538 138.566 283.879 138.566 283.068C138.566 282.257 137.907 281.598 137.095 281.598ZM163.857 284.538V281.598C163.045 281.598 162.385 282.257 162.385 283.068C162.385 283.879 163.045 284.538 163.857 284.538ZM110.332 308.332C109.52 308.332 108.861 308.99 108.861 309.802C108.861 310.613 109.52 311.272 110.332 311.272C111.144 311.272 111.804 310.613 111.804 309.802C111.804 308.99 111.144 308.332 110.332 308.332ZM137.095 308.332C136.282 308.332 135.623 308.99 135.623 309.802C135.623 310.613 136.282 311.272 137.095 311.272C137.907 311.272 138.566 310.613 138.566 309.802C138.566 308.99 137.907 308.332 137.095 308.332ZM165.328 256.334C165.328 255.523 164.669 254.864 163.857 254.864V257.804C164.669 257.804 165.328 257.146 165.328 256.334ZM163.857 284.538C164.669 284.538 165.328 283.879 165.328 283.068C165.328 282.257 164.669 281.598 163.857 281.598V284.538ZM163.857 308.332C163.045 308.332 162.385 308.99 162.385 309.802C162.385 310.613 163.045 311.272 163.857 311.272C164.669 311.272 165.328 310.613 165.328 309.802C165.328 308.99 164.669 308.332 163.857 308.332ZM190.619 254.864C189.807 254.864 189.148 255.523 189.148 256.334C189.148 257.146 189.807 257.804 190.619 257.804C191.431 257.804 192.09 257.146 192.09 256.334C192.09 255.523 191.431 254.864 190.619 254.864ZM217.381 254.864C216.569 254.864 215.91 255.523 215.91 256.334C215.91 257.146 216.569 257.804 217.381 257.804C218.193 257.804 218.852 257.146 218.852 256.334C218.852 255.523 218.193 254.864 217.381 254.864ZM244.143 254.864C243.331 254.864 242.672 255.523 242.672 256.334C242.672 257.146 243.331 257.804 244.143 257.804C244.955 257.804 245.615 257.146 245.615 256.334C245.615 255.523 244.955 254.864 244.143 254.864ZM190.619 281.598C189.807 281.598 189.148 282.257 189.148 283.068C189.148 283.879 189.807 284.538 190.619 284.538C191.431 284.538 192.09 283.879 192.09 283.068C192.09 282.257 191.431 281.598 190.619 281.598ZM217.381 281.598C216.569 281.598 215.91 282.257 215.91 283.068C215.91 283.879 216.569 284.538 217.381 284.538C218.193 284.538 218.852 283.879 218.852 283.068C218.852 282.257 218.193 281.598 217.381 281.598ZM244.143 284.538C244.955 284.538 245.615 283.879 245.615 283.068C245.615 282.257 244.955 281.598 244.143 281.598C243.331 281.598 242.672 282.257 242.672 283.068C242.672 283.879 243.331 284.538 244.143 284.538ZM190.619 308.332C189.807 308.332 189.148 308.99 189.148 309.802C189.148 310.613 189.807 311.272 190.619 311.272C191.431 311.272 192.09 310.613 192.09 309.802C192.09 308.99 191.431 308.332 190.619 308.332ZM217.381 308.332C216.569 308.332 215.91 308.99 215.91 309.802C215.91 310.613 216.569 311.272 217.381 311.272C218.193 311.272 218.852 310.613 218.852 309.802C218.852 308.99 218.193 308.332 217.381 308.332ZM244.143 308.332C243.331 308.332 242.672 308.99 242.672 309.802C242.672 310.613 243.331 311.272 244.143 311.272C244.955 311.272 245.615 310.613 245.615 309.802C245.615 308.99 244.955 308.332 244.143 308.332ZM270.905 254.864C270.093 254.864 269.434 255.523 269.434 256.334C269.434 257.146 270.093 257.804 270.905 257.804C271.718 257.804 272.377 257.146 272.377 256.334C272.377 255.523 271.718 254.864 270.905 254.864ZM297.665 254.864C296.853 254.864 296.193 255.523 296.193 256.334C296.193 257.146 296.853 257.804 297.665 257.804C298.477 257.804 299.136 257.146 299.136 256.334C299.136 255.523 298.477 254.864 297.665 254.864ZM270.905 281.598C270.093 281.598 269.434 282.257 269.434 283.068C269.434 283.879 270.093 284.538 270.905 284.538C271.718 284.538 272.377 283.879 272.377 283.068C272.377 282.257 271.718 281.598 270.905 281.598ZM297.665 281.598C296.853 281.598 296.193 282.257 296.193 283.068C296.193 283.879 296.853 284.538 297.665 284.538C298.477 284.538 299.136 283.879 299.136 283.068C299.136 282.257 298.477 281.598 297.665 281.598ZM270.905 308.332C270.093 308.332 269.434 308.99 269.434 309.802C269.434 310.613 270.093 311.272 270.905 311.272C271.718 311.272 272.377 310.613 272.377 309.802C272.377 308.99 271.718 308.332 270.905 308.332ZM297.665 308.332C296.853 308.332 296.193 308.99 296.193 309.802C296.193 310.613 296.853 311.272 297.665 311.272C298.477 311.272 299.136 310.613 299.136 309.802C299.136 308.99 298.477 308.332 297.665 308.332ZM324.427 254.864C323.615 254.864 322.956 255.523 322.956 256.334C322.956 257.146 323.615 257.804 324.427 257.804C325.239 257.804 325.898 257.146 325.898 256.334C325.898 255.523 325.239 254.864 324.427 254.864ZM324.427 281.598C323.615 281.598 322.956 282.257 322.956 283.068C322.956 283.879 323.615 284.538 324.427 284.538C325.239 284.538 325.898 283.879 325.898 283.068C325.898 282.257 325.239 281.598 324.427 281.598ZM324.427 308.332C323.615 308.332 322.956 308.99 322.956 309.802C322.956 310.613 323.615 311.272 324.427 311.272C325.239 311.272 325.898 310.613 325.898 309.802C325.898 308.99 325.239 308.332 324.427 308.332ZM351.189 254.864C350.377 254.864 349.718 255.523 349.718 256.334C349.718 257.146 350.377 257.804 351.189 257.804C352.001 257.804 352.66 257.146 352.66 256.334C352.66 255.523 352.001 254.864 351.189 254.864ZM377.951 254.864C377.139 254.864 376.48 255.523 376.48 256.334C376.48 257.146 377.139 257.804 377.951 257.804C378.763 257.804 379.423 257.146 379.423 256.334C379.423 255.523 378.763 254.864 377.951 254.864ZM404.713 254.864C403.901 254.864 403.242 255.523 403.242 256.334C403.242 257.146 403.901 257.804 404.713 257.804C405.526 257.804 406.185 257.146 406.185 256.334C406.185 255.523 405.526 254.864 404.713 254.864ZM351.189 281.598C350.377 281.598 349.718 282.257 349.718 283.068C349.718 283.879 350.377 284.538 351.189 284.538C352.001 284.538 352.66 283.879 352.66 283.068C352.66 282.257 352.001 281.598 351.189 281.598ZM377.951 281.598C377.139 281.598 376.48 282.257 376.48 283.068C376.48 283.879 377.139 284.538 377.951 284.538C378.763 284.538 379.423 283.879 379.423 283.068C379.423 282.257 378.763 281.598 377.951 281.598ZM404.713 284.538C405.526 284.538 406.185 283.879 406.185 283.068C406.185 282.257 405.526 281.598 404.713 281.598C403.901 281.598 403.242 282.257 403.242 283.068C403.242 283.879 403.901 284.538 404.713 284.538ZM351.189 308.332C350.377 308.332 349.718 308.99 349.718 309.802C349.718 310.613 350.377 311.272 351.189 311.272C352.001 311.272 352.66 310.613 352.66 309.802C352.66 308.99 352.001 308.332 351.189 308.332ZM377.951 308.332C377.139 308.332 376.48 308.99 376.48 309.802C376.48 310.613 377.139 311.272 377.951 311.272C378.763 311.272 379.423 310.613 379.423 309.802C379.423 308.99 378.763 308.332 377.951 308.332ZM404.713 308.332C403.901 308.332 403.242 308.99 403.242 309.802C403.242 310.613 403.901 311.272 404.713 311.272C405.526 311.272 406.185 310.613 406.185 309.802C406.185 308.99 405.526 308.332 404.713 308.332ZM431.476 254.864C430.664 254.864 430.004 255.523 430.004 256.334C430.004 257.146 430.664 257.804 431.476 257.804C432.288 257.804 432.947 257.146 432.947 256.334C432.947 255.523 432.288 254.864 431.476 254.864ZM458.238 254.864C457.426 254.864 456.766 255.523 456.766 256.334C456.766 257.146 457.426 257.804 458.238 257.804C459.05 257.804 459.709 257.146 459.709 256.334C459.709 255.523 459.05 254.864 458.238 254.864ZM483.529 256.334C483.529 257.146 484.188 257.804 485 257.804V254.864C484.188 254.864 483.529 255.523 483.529 256.334ZM431.476 281.598C430.664 281.598 430.004 282.257 430.004 283.068C430.004 283.879 430.664 284.538 431.476 284.538C432.288 284.538 432.947 283.879 432.947 283.068C432.947 282.257 432.288 281.598 431.476 281.598ZM458.238 281.598C457.426 281.598 456.766 282.257 456.766 283.068C456.766 283.879 457.426 284.538 458.238 284.538C459.05 284.538 459.709 283.879 459.709 283.068C459.709 282.257 459.05 281.598 458.238 281.598ZM483.529 283.068C483.529 283.879 484.188 284.538 485 284.538V281.598C484.188 281.598 483.529 282.257 483.529 283.068ZM431.476 308.332C430.664 308.332 430.004 308.99 430.004 309.802C430.004 310.613 430.664 311.272 431.476 311.272C432.288 311.272 432.947 310.613 432.947 309.802C432.947 308.99 432.288 308.332 431.476 308.332ZM458.238 308.332C457.426 308.332 456.766 308.99 456.766 309.802C456.766 310.613 457.426 311.272 458.238 311.272C459.05 311.272 459.709 310.613 459.709 309.802C459.709 308.99 459.05 308.332 458.238 308.332ZM483.529 309.802C483.529 310.613 484.188 311.272 485 311.272V309.802V308.332C484.188 308.332 483.529 308.99 483.529 309.802ZM-77 335.063V338.002C-76.1879 338.002 -75.5286 337.344 -75.5286 336.533C-75.5286 335.721 -76.1879 335.063 -77 335.063ZM-77 361.796V364.736C-76.1879 364.736 -75.5286 364.078 -75.5286 363.266C-75.5286 362.455 -76.1879 361.796 -77 361.796ZM-77 388.53V390H-75.5286C-75.5286 389.189 -76.1879 388.53 -77 388.53ZM-50.2378 335.066C-51.0499 335.066 -51.7092 335.724 -51.7092 336.535C-51.7092 337.347 -51.0499 338.005 -50.2378 338.005C-49.4257 338.005 -48.7664 337.347 -48.7664 336.535C-48.7664 335.724 -49.4257 335.066 -50.2378 335.066ZM-23.4757 335.066C-24.2877 335.066 -24.947 335.724 -24.947 336.535C-24.947 337.347 -24.2877 338.005 -23.4757 338.005C-22.6636 338.005 -22.0043 337.347 -22.0043 336.535C-22.0043 335.724 -22.6636 335.066 -23.4757 335.066ZM-50.2378 361.796C-51.0499 361.796 -51.7092 362.455 -51.7092 363.266C-51.7092 364.078 -51.0499 364.736 -50.2378 364.736C-49.4257 364.736 -48.7664 364.078 -48.7664 363.266C-48.7664 362.455 -49.4257 361.796 -50.2378 361.796ZM-23.4757 361.796C-24.2877 361.796 -24.947 362.455 -24.947 363.266C-24.947 364.078 -24.2877 364.736 -23.4757 364.736C-22.6636 364.736 -22.0043 364.078 -22.0043 363.266C-22.0043 362.455 -22.6636 361.796 -23.4757 361.796ZM-50.2378 388.53C-51.0499 388.53 -51.7092 389.189 -51.7092 390H-48.7664C-48.7664 389.189 -49.4257 388.53 -50.2378 388.53ZM-23.4757 388.53C-24.2877 388.53 -24.947 389.189 -24.947 390H-22.0043C-22.0043 389.189 -22.6636 388.53 -23.4757 388.53ZM3.28651 335.063C2.47443 335.063 1.81514 335.721 1.81514 336.533C1.81514 337.344 2.47443 338.002 3.28651 338.002C4.09861 338.002 4.7579 337.344 4.7579 336.533C4.7579 335.721 4.09861 335.063 3.28651 335.063ZM3.28651 361.796C2.47443 361.796 1.81514 362.455 1.81514 363.266C1.81514 364.078 2.47443 364.736 3.28651 364.736C4.09861 364.736 4.7579 364.078 4.7579 363.266C4.7579 362.455 4.09861 361.796 3.28651 361.796ZM3.28651 388.53C2.47443 388.53 1.81514 389.189 1.81514 390H3.28651H4.7579C4.7579 389.189 4.09861 388.53 3.28651 388.53ZM30.0487 338.005C30.8608 338.005 31.5201 337.347 31.5201 336.535C31.5201 335.724 30.8608 335.066 30.0487 335.066C29.2366 335.066 28.5773 335.724 28.5773 336.535C28.5773 337.347 29.2366 338.005 30.0487 338.005ZM56.8109 335.066C55.9988 335.066 55.3395 335.724 55.3395 336.535C55.3395 337.347 55.9988 338.005 56.8109 338.005C57.623 338.005 58.2823 337.347 58.2823 336.535C58.2823 335.724 57.623 335.066 56.8109 335.066ZM30.0487 364.739C30.8608 364.739 31.5201 364.08 31.5201 363.269C31.5201 362.458 30.8608 361.799 30.0487 361.799C29.2366 361.799 28.5773 362.458 28.5773 363.269C28.5773 364.08 29.2366 364.739 30.0487 364.739ZM56.8109 361.796C55.9988 361.796 55.3395 362.455 55.3395 363.266C55.3395 364.078 55.9988 364.736 56.8109 364.736C57.623 364.736 58.2823 364.078 58.2823 363.266C58.2823 362.455 57.623 361.796 56.8109 361.796ZM30.0487 388.53C29.2366 388.53 28.5773 389.189 28.5773 390H31.5201C31.5201 389.189 30.8608 388.53 30.0487 388.53ZM56.8109 388.53C55.9988 388.53 55.3395 389.189 55.3395 390H58.2823C58.2823 389.189 57.623 388.53 56.8109 388.53ZM83.5702 335.063C82.7581 335.063 82.0988 335.721 82.0988 336.533C82.0988 337.344 82.7581 338.002 83.5702 338.002C84.3823 338.002 85.0416 337.344 85.0416 336.533C85.0416 335.721 84.3823 335.063 83.5702 335.063ZM83.5702 361.796C82.7581 361.796 82.0988 362.455 82.0988 363.266C82.0988 364.078 82.7581 364.736 83.5702 364.736C84.3823 364.736 85.0416 364.078 85.0416 363.266C85.0416 362.455 84.3823 361.796 83.5702 361.796ZM83.5702 388.53C82.7581 388.53 82.0988 389.189 82.0988 390H83.5702H85.0416C85.0416 389.189 84.3823 388.53 83.5702 388.53ZM110.332 335.063C109.52 335.063 108.861 335.721 108.861 336.533C108.861 337.344 109.52 338.002 110.332 338.002C111.144 338.002 111.804 337.344 111.804 336.533C111.804 335.721 111.144 335.063 110.332 335.063ZM137.327 338.005C138.127 337.872 138.671 337.118 138.54 336.315C138.407 335.515 137.652 334.972 136.848 335.102C136.045 335.232 135.504 335.99 135.634 336.793C135.765 337.595 136.523 338.135 137.327 338.005ZM162.385 336.535C162.385 337.347 163.045 338.005 163.857 338.005V335.066C163.045 335.066 162.385 335.724 162.385 336.535ZM110.332 361.796C109.52 361.796 108.861 362.455 108.861 363.266C108.861 364.078 109.52 364.736 110.332 364.736C111.144 364.736 111.804 364.078 111.804 363.266C111.804 362.455 111.144 361.796 110.332 361.796ZM137.095 361.796C136.282 361.796 135.623 362.455 135.623 363.266C135.623 364.078 136.282 364.736 137.095 364.736C137.907 364.736 138.566 364.078 138.566 363.266C138.566 362.455 137.907 361.796 137.095 361.796ZM162.385 363.266C162.385 364.078 163.045 364.736 163.857 364.736V361.796C163.045 361.796 162.385 362.455 162.385 363.266ZM110.332 388.53C109.52 388.53 108.861 389.189 108.861 390H111.804C111.804 389.189 111.144 388.53 110.332 388.53ZM137.095 388.53C136.282 388.53 135.623 389.189 135.623 390H138.566C138.566 389.189 137.907 388.53 137.095 388.53ZM162.385 390H163.857V388.53C163.045 388.53 162.385 389.189 162.385 390ZM165.328 336.535C165.328 335.724 164.669 335.066 163.857 335.066V338.005C164.669 338.005 165.328 337.347 165.328 336.535ZM163.857 364.736C164.669 364.736 165.328 364.078 165.328 363.266C165.328 362.455 164.669 361.796 163.857 361.796V364.736ZM163.857 388.53V390H165.328C165.328 389.189 164.669 388.53 163.857 388.53ZM190.619 335.063C189.807 335.063 189.148 335.721 189.148 336.533C189.148 337.344 189.807 338.002 190.619 338.002C191.431 338.002 192.09 337.344 192.09 336.533C192.09 335.721 191.431 335.063 190.619 335.063ZM217.381 335.063C216.569 335.063 215.91 335.721 215.91 336.533C215.91 337.344 216.569 338.002 217.381 338.002C218.193 338.002 218.852 337.344 218.852 336.533C218.852 335.721 218.193 335.063 217.381 335.063ZM244.143 338.005C244.955 338.005 245.615 337.347 245.615 336.535C245.615 335.724 244.955 335.066 244.143 335.066C243.331 335.066 242.672 335.724 242.672 336.535C242.672 337.347 243.331 338.005 244.143 338.005ZM190.619 361.796C189.807 361.796 189.148 362.455 189.148 363.266C189.148 364.078 189.807 364.736 190.619 364.736C191.431 364.736 192.09 364.078 192.09 363.266C192.09 362.455 191.431 361.796 190.619 361.796ZM217.381 361.796C216.569 361.796 215.91 362.455 215.91 363.266C215.91 364.078 216.569 364.736 217.381 364.736C218.193 364.736 218.852 364.078 218.852 363.266C218.852 362.455 218.193 361.796 217.381 361.796ZM244.143 364.739C244.955 364.739 245.615 364.08 245.615 363.269C245.615 362.458 244.955 361.799 244.143 361.799C243.331 361.799 242.672 362.458 242.672 363.269C242.672 364.08 243.331 364.739 244.143 364.739ZM190.619 388.53C189.807 388.53 189.148 389.189 189.148 390H192.09C192.09 389.189 191.431 388.53 190.619 388.53ZM217.381 388.53C216.569 388.53 215.91 389.189 215.91 390H218.852C218.852 389.189 218.193 388.53 217.381 388.53ZM244.143 388.53C243.331 388.53 242.672 389.189 242.672 390H244.143H245.615C245.615 389.189 244.955 388.53 244.143 388.53ZM270.905 335.063C270.093 335.063 269.434 335.721 269.434 336.533C269.434 337.344 270.093 338.002 270.905 338.002C271.718 338.002 272.377 337.344 272.377 336.533C272.377 335.721 271.718 335.063 270.905 335.063ZM297.665 335.063C296.853 335.063 296.193 335.721 296.193 336.533C296.193 337.344 296.853 338.002 297.665 338.002C298.477 338.002 299.136 337.344 299.136 336.533C299.136 335.721 298.477 335.063 297.665 335.063ZM270.905 361.796C270.093 361.796 269.434 362.455 269.434 363.266C269.434 364.078 270.093 364.736 270.905 364.736C271.718 364.736 272.377 364.078 272.377 363.266C272.377 362.455 271.718 361.796 270.905 361.796ZM297.665 361.796C296.853 361.796 296.193 362.455 296.193 363.266C296.193 364.078 296.853 364.736 297.665 364.736C298.477 364.736 299.136 364.078 299.136 363.266C299.136 362.455 298.477 361.796 297.665 361.796ZM270.905 388.53C270.093 388.53 269.434 389.189 269.434 390H272.377C272.377 389.189 271.718 388.53 270.905 388.53ZM297.665 388.53C296.853 388.53 296.193 389.189 296.193 390H299.136C299.136 389.189 298.477 388.53 297.665 388.53ZM324.427 335.063C323.615 335.063 322.956 335.721 322.956 336.533C322.956 337.344 323.615 338.002 324.427 338.002C325.239 338.002 325.898 337.344 325.898 336.533C325.898 335.721 325.239 335.063 324.427 335.063ZM324.427 361.796C323.615 361.796 322.956 362.455 322.956 363.266C322.956 364.078 323.615 364.736 324.427 364.736C325.239 364.736 325.898 364.078 325.898 363.266C325.898 362.455 325.239 361.796 324.427 361.796ZM324.427 388.53C323.615 388.53 322.956 389.189 322.956 390H324.427H325.898C325.898 389.189 325.239 388.53 324.427 388.53ZM351.189 335.066C350.377 335.066 349.718 335.724 349.718 336.535C349.718 337.347 350.377 338.005 351.189 338.005C352.001 338.005 352.66 337.347 352.66 336.535C352.66 335.724 352.001 335.066 351.189 335.066ZM377.951 335.063C377.139 335.063 376.48 335.721 376.48 336.533C376.48 337.344 377.139 338.002 377.951 338.002C378.763 338.002 379.423 337.344 379.423 336.533C379.423 335.721 378.763 335.063 377.951 335.063ZM404.713 338.005C405.526 338.005 406.185 337.347 406.185 336.535C406.185 335.724 405.526 335.066 404.713 335.066C403.901 335.066 403.242 335.724 403.242 336.535C403.242 337.347 403.901 338.005 404.713 338.005ZM351.189 361.796C350.377 361.796 349.718 362.455 349.718 363.266C349.718 364.078 350.377 364.736 351.189 364.736C352.001 364.736 352.66 364.078 352.66 363.266C352.66 362.455 352.001 361.796 351.189 361.796ZM377.951 361.796C377.139 361.796 376.48 362.455 376.48 363.266C376.48 364.078 377.139 364.736 377.951 364.736C378.763 364.736 379.423 364.078 379.423 363.266C379.423 362.455 378.763 361.796 377.951 361.796ZM404.713 364.739C405.526 364.739 406.185 364.08 406.185 363.269C406.185 362.458 405.526 361.799 404.713 361.799C403.901 361.799 403.242 362.458 403.242 363.269C403.242 364.08 403.901 364.739 404.713 364.739ZM351.189 388.53C350.377 388.53 349.718 389.189 349.718 390H352.66C352.66 389.189 352.001 388.53 351.189 388.53ZM377.951 388.53C377.139 388.53 376.48 389.189 376.48 390H379.423C379.423 389.189 378.763 388.53 377.951 388.53ZM404.713 388.53C403.901 388.53 403.242 389.189 403.242 390H404.713H406.185C406.185 389.189 405.526 388.53 404.713 388.53ZM431.476 335.066C430.664 335.066 430.004 335.724 430.004 336.535C430.004 337.347 430.664 338.005 431.476 338.005C432.288 338.005 432.947 337.347 432.947 336.535C432.947 335.724 432.288 335.066 431.476 335.066ZM458.238 335.066C457.426 335.066 456.766 335.724 456.766 336.535C456.766 337.347 457.426 338.005 458.238 338.005C459.05 338.005 459.709 337.347 459.709 336.535C459.709 335.724 459.05 335.066 458.238 335.066ZM483.529 336.535C483.529 337.347 484.188 338.005 485 338.005V335.066C484.188 335.066 483.529 335.724 483.529 336.535ZM431.476 361.796C430.664 361.796 430.004 362.455 430.004 363.266C430.004 364.078 430.664 364.736 431.476 364.736C432.288 364.736 432.947 364.078 432.947 363.266C432.947 362.455 432.288 361.796 431.476 361.796ZM458.238 361.796C457.426 361.796 456.766 362.455 456.766 363.266C456.766 364.078 457.426 364.736 458.238 364.736C459.05 364.736 459.709 364.078 459.709 363.266C459.709 362.455 459.05 361.796 458.238 361.796ZM483.529 363.266C483.529 364.078 484.188 364.736 485 364.736V361.796C484.188 361.796 483.529 362.455 483.529 363.266ZM431.476 388.53C430.664 388.53 430.004 389.189 430.004 390H432.947C432.947 389.189 432.288 388.53 431.476 388.53ZM458.238 388.53C457.426 388.53 456.766 389.189 456.766 390H459.709C459.709 389.189 459.05 388.53 458.238 388.53ZM483.529 390H485V388.53C484.188 388.53 483.529 389.189 483.529 390Z" fill="white" fill-opacity="0.05"/>
</svg>
